<svg xmlns="http://www.w3.org/2000/svg" width="780" height="130" viewBox="0 0 780 130"><path fill="#191713" d="M35 22 168 16 301 20 470 13 689 18 745 29 723 44 758 49 737 65 750 83 710 93 741 106 670 113 465 107 291 116 126 109 30 111 43 95 19 85 32 67 17 50 39 40Z"/><path d="M164 13h59" stroke="#191713" opacity=".6" stroke-width="2"/><path d="M331 17h38" stroke="#191713" opacity=".6" stroke-width="3"/><path d="M278 17h46" stroke="#191713" opacity=".6" stroke-width="3"/><path d="M154 13h94" stroke="#191713" opacity=".6" stroke-width="1"/><path d="M654 117h89" stroke="#191713" opacity=".6" stroke-width="3"/><path d="M82 13h33" stroke="#191713" opacity=".6" stroke-width="3"/><path d="M145 17h43" stroke="#191713" opacity=".6" stroke-width="1"/><path d="M288 13h71" stroke="#191713" opacity=".6" stroke-width="2"/><path d="M624 17h46" stroke="#191713" opacity=".6" stroke-width="3"/><path d="M608 117h83" stroke="#191713" opacity=".6" stroke-width="1"/><path d="M275 117h53" stroke="#191713" opacity=".6" stroke-width="1"/><path d="M653 111h41" stroke="#191713" opacity=".6" stroke-width="1"/><path d="M56 17h52" stroke="#191713" opacity=".6" stroke-width="2"/><path d="M482 111h46" stroke="#191713" opacity=".6" stroke-width="1"/><path d="M334 17h39" stroke="#191713" opacity=".6" stroke-width="3"/><path d="M270 111h52" stroke="#191713" opacity=".6" stroke-width="1"/><path d="M154 13h95" stroke="#191713" opacity=".6" stroke-width="2"/><path d="M439 13h62" stroke="#191713" opacity=".6" stroke-width="3"/><path d="M417 111h70" stroke="#191713" opacity=".6" stroke-width="1"/><path d="M320 13h45" stroke="#191713" opacity=".6" stroke-width="1"/><path d="M520 13h43" stroke="#191713" opacity=".6" stroke-width="3"/><path d="M437 13h83" stroke="#191713" opacity=".6" stroke-width="3"/><path d="M615 111h45" stroke="#191713" opacity=".6" stroke-width="3"/><path d="M420 17h86" stroke="#191713" opacity=".6" stroke-width="2"/><path d="M121 13h86" stroke="#191713" opacity=".6" stroke-width="2"/><path d="M283 111h58" stroke="#191713" opacity=".6" stroke-width="1"/><path d="M131 17h29" stroke="#191713" opacity=".6" stroke-width="3"/><path d="M153 117h75" stroke="#191713" opacity=".6" stroke-width="1"/><path d="M334 117h18" stroke="#191713" opacity=".6" stroke-width="1"/><path d="M423 17h31" stroke="#191713" opacity=".6" stroke-width="3"/></svg>